:FULLY-SPECIFIED
:FORCE-ALL-JOINTS-BE-3DOF
:DEGREES
95
root 0.626966 17.4629 14.4038 0.0866325 1.87458 2.3083
lfemur -10.1534 0.68953 -24.014
ltibia 55.9188 0 0
lfoot -3.26297 -0.609289 0
ltoes -13.5761 0 0
rfemur -14.8366 -7.06724 18.8519
rtibia 86.4153 0 0
rfoot 14.1106 -6.524 0
rtoes 20.7555 0 0
lowerback 17.8518 -1.04501 -3.31859
upperback 2.64549 -2.11014 -1.553
thorax -7.08705 -0.963437 0.714032
lowerneck -6.68772 0.0949034 -1.49999
upperneck -8.73511 0.326385 2.14224
head -1.55729 0.177134 0.942435
lclavicle -6.75382e-15 3.51606e-14 0
lhumerus -30.6838 -16.5317 87.9953
lradius 106.522 0 0
lwrist 28.8466 0 0
lhand -36.554 7.94618 0
lfingers 7.12502 0 0
lthumb -9.64434 37.7042 0
rclavicle -6.75382e-15 3.51606e-14 0
rhumerus -45.3065 7.89754 -85.0817
rradius 82.8933 0 0
rwrist -0.120428 0 0
rhand -44.5904 38.2635 0
rfingers 7.12502 0 0
rthumb -17.3895 9.0214 0
96
root 0.631682 17.4642 14.9448 0.0772492 1.59469 2.21972
lfemur -9.75773 1.07204 -23.6937
ltibia 57.3192 0 0
lfoot -2.24067 -0.607446 0
ltoes -13.3663 0 0
rfemur -14.9944 -6.65478 19.1478
rtibia 84.7204 0 0
rfoot 13.2751 -6.52041 0
rtoes 20.341 0 0
lowerback 17.8423 -1.06515 -3.14185
upperback 2.61282 -2.0955 -1.45172
thorax -7.11983 -0.959556 0.719399
lowerneck -6.68425 0.192035 -1.44611
upperneck -8.71837 0.441232 1.92431
head -1.55122 0.235308 0.865758
lclavicle -7.63139e-15 3.45788e-14 0
lhumerus -31.2017 -16.6383 88.217
lradius 106.49 0 0
lwrist 28.8101 0 0
lhand -36.5931 7.98019 0
lfingers 7.12502 0 0
lthumb -9.68203 37.7364 0
rclavicle -7.63139e-15 3.45788e-14 0
rhumerus -45.0734 8.03842 -85.082
rradius 83.1985 0 0
rwrist -0.230067 0 0
rhand -44.5873 38.275 0
rfingers 7.12502 0 0
rthumb -17.3865 9.03258 0
97
root 0.636398 17.4656 15.4858 0.0678659 1.3148 2.13114
lfemur -9.36202 1.45454 -23.3733
ltibia 58.7196 0 0
lfoot -1.21837 -0.605602 0
ltoes -13.1566 0 0
rfemur -15.1523 -6.24233 19.4436
rtibia 83.0255 0 0
rfoot 12.4395 -6.51682 0
rtoes 19.9265 0 0
lowerback 17.8328 -1.08529 -2.96511
upperback 2.58016 -2.08085 -1.35044
thorax -7.15261 -0.955675 0.724766
lowerneck -6.68078 0.289167 -1.39223
upperneck -8.70162 0.556079 1.70638
head -1.54516 0.293482 0.789081
lclavicle -8.50895e-15 3.3997e-14 0
lhumerus -31.7196 -16.7448 88.4388
lradius 106.458 0 0
lwrist 28.7736 0 0
lhand -36.6322 8.0142 0
lfingers 7.12502 0 0
lthumb -9.71972 37.7686 0
rclavicle -8.50895e-15 3.3997e-14 0
rhumerus -44.8403 8.1793 -85.0823
rradius 83.5036 0 0
rwrist -0.339706 0 0
rhand -44.5842 38.2864 0
rfingers 7.12502 0 0
rthumb -17.3835 9.04375 0
98
root 0.641114 17.4669 16.0268 0.0584826 1.03492 2.04255
lfemur -8.96632 1.83705 -23.0529
ltibia 60.1199 0 0
lfoot -0.196063 -0.603759 0
ltoes -12.9468 0 0
rfemur -15.3102 -5.82987 19.7394
rtibia 81.3306 0 0
rfoot 11.604 -6.51322 0
rtoes 19.5121 0 0
lowerback 17.8233 -1.10542 -2.78837
upperback 2.5475 -2.0662 -1.24915
thorax -7.1854 -0.951794 0.730133
lowerneck -6.6773 0.386299 -1.33835
upperneck -8.68488 0.670926 1.48845
head -1.5391 0.351656 0.712404
lclavicle -9.38651e-15 3.34152e-14 0
lhumerus -32.2374 -16.8513 88.6606
lradius 106.425 0 0
lwrist 28.7371 0 0
lhand -36.6712 8.04821 0
lfingers 7.12502 0 0
lthumb -9.75742 37.8008 0
rclavicle -9.38651e-15 3.34152e-14 0
rhumerus -44.6072 8.32018 -85.0826
rradius 83.8088 0 0
rwrist -0.449345 0 0
rhand -44.5811 38.2978 0
rfingers 7.12502 0 0
rthumb -17.3805 9.05492 0
99
root 0.64583 17.4683 16.5679 0.0490993 0.755034 1.95397
lfemur -8.57061 2.21955 -22.7325
ltibia 61.5203 0 0
lfoot 0.826239 -0.601915 0
ltoes -12.737 0 0
rfemur -15.4681 -5.41742 20.0352
rtibia 79.6358 0 0
rfoot 10.7684 -6.50963 0
rtoes 19.0976 0 0
lowerback 17.8138 -1.12556 -2.61162
upperback 2.51484 -2.05156 -1.14787
thorax -7.21818 -0.947913 0.735499
lowerneck -6.67383 0.483431 -1.28447
upperneck -8.66813 0.785773 1.27052
head -1.53304 0.40983 0.635727
lclavicle -1.02641e-14 3.28334e-14 0
lhumerus -32.7553 -16.9579 88.8823
lradius 106.393 0 0
lwrist 28.7005 0 0
lhand -36.7103 8.08222 0
lfingers 7.12502 0 0
lthumb -9.79511 37.833 0
rclavicle -1.02641e-14 3.28334e-14 0
rhumerus -44.374 8.46105 -85.0829
rradius 84.1139 0 0
rwrist -0.558984 0 0
rhand -44.5779 38.3093 0
rfingers 7.12502 0 0
rthumb -17.3775 9.06609 0
100
root 0.650546 17.4696 17.1089 0.039716 0.475149 1.86539
lfemur -8.17491 2.60206 -22.4121
ltibia 62.9206 0 0
lfoot 1.84854 -0.600071 0
ltoes -12.5272 0 0
rfemur -15.626 -5.00496 20.331
rtibia 77.9409 0 0
rfoot 9.93287 -6.50604 0
rtoes 18.6832 0 0
lowerback 17.8043 -1.1457 -2.43488
upperback 2.48218 -2.03691 -1.04658
thorax -7.25097 -0.944032 0.740866
lowerneck -6.67036 0.580563 -1.23059
upperneck -8.65139 0.90062 1.05259
head -1.52698 0.468004 0.55905
lclavicle -1.11416e-14 3.22516e-14 0
lhumerus -33.2731 -17.0644 89.1041
lradius 106.361 0 0
lwrist 28.664 0 0
lhand -36.7494 8.11623 0
lfingers 7.12502 0 0
lthumb -9.8328 37.8652 0
rclavicle -1.11416e-14 3.22516e-14 0
rhumerus -44.1409 8.60193 -85.0832
rradius 84.4191 0 0
rwrist -0.668623 0 0
rhand -44.5748 38.3207 0
rfingers 7.12502 0 0
rthumb -17.3745 9.07726 0
101
root 0.655262 17.471 17.6499 0.0303327 0.195263 1.77681
lfemur -7.7792 2.98457 -22.0918
ltibia 64.321 0 0
lfoot 2.87084 -0.598228 0
ltoes -12.3174 0 0
rfemur -15.7839 -4.59251 20.6269
rtibia 76.246 0 0
rfoot 9.09732 -6.50244 0
rtoes 18.2687 0 0
lowerback 17.7947 -1.16583 -2.25814
upperback 2.44952 -2.02227 -0.9453
thorax -7.28375 -0.940151 0.746233
lowerneck -6.66688 0.677695 -1.17671
upperneck -8.63465 1.01547 0.83466
head -1.52092 0.526178 0.482373
lclavicle -1.20192e-14 3.16698e-14 0
lhumerus -33.791 -17.171 89.3258
lradius 106.329 0 0
lwrist 28.6275 0 0
lhand -36.7884 8.15024 0
lfingers 7.12502 0 0
lthumb -9.87049 37.8974 0
rclavicle -1.20192e-14 3.16698e-14 0
rhumerus -43.9078 8.74281 -85.0835
rradius 84.7243 0 0
rwrist -0.778262 0 0
rhand -44.5717 38.3322 0
rfingers 7.12502 0 0
rthumb -17.3715 9.08843 0
102
root 0.659978 17.4723 18.1909 0.0209494 -0.084622 1.68823
lfemur -7.3835 3.36707 -21.7714
ltibia 65.7214 0 0
lfoot 3.89315 -0.596384 0
ltoes -12.1076 0 0
rfemur -15.9418 -4.18005 20.9227
rtibia 74.5511 0 0
rfoot 8.26177 -6.49885 0
rtoes 17.8542 0 0
lowerback 17.7852 -1.18597 -2.0814
upperback 2.41686 -2.00762 -0.844016
thorax -7.31654 -0.93627 0.7516
lowerneck -6.66341 0.774827 -1.12282
upperneck -8.6179 1.13031 0.61673
head -1.51486 0.584352 0.405696
lclavicle -1.28968e-14 3.1088e-14 0
lhumerus -34.3088 -17.2775 89.5476
lradius 106.297 0 0
lwrist 28.5909 0 0
lhand -36.8275 8.18425 0
lfingers 7.12502 0 0
lthumb -9.90818 37.9296 0
rclavicle -1.28968e-14 3.1088e-14 0
rhumerus -43.6747 8.88369 -85.0838
rradius 85.0294 0 0
rwrist -0.887901 0 0
rhand -44.5686 38.3436 0
rfingers 7.12502 0 0
rthumb -17.3685 9.0996 0
103
root 0.664694 17.4737 18.7319 0.0115661 -0.364507 1.59964
lfemur -6.98779 3.74958 -21.451
ltibia 67.1217 0 0
lfoot 4.91545 -0.594541 0
ltoes -11.8978 0 0
rfemur -16.0997 -3.7676 21.2185
rtibia 72.8562 0 0
rfoot 7.42622 -6.49526 0
rtoes 17.4398 0 0
lowerback 17.7757 -1.20611 -1.90466
upperback 2.3842 -1.99297 -0.742732
thorax -7.34932 -0.932389 0.756967
lowerneck -6.65994 0.871959 -1.06894
upperneck -8.60116 1.24516 0.3988
head -1.5088 0.642526 0.329019
lclavicle -1.37743e-14 3.05062e-14 0
lhumerus -34.8267 -17.384 89.7694
lradius 106.265 0 0
lwrist 28.5544 0 0
lhand -36.8666 8.21826 0
lfingers 7.12502 0 0
lthumb -9.94587 37.9618 0
rclavicle -1.37743e-14 3.05062e-14 0
rhumerus -43.4416 9.02457 -85.0841
rradius 85.3346 0 0
rwrist -0.99754 0 0
rhand -44.5655 38.355 0
rfingers 7.12502 0 0
rthumb -17.3655 9.11077 0
104
root 0.669409 17.475 19.273 0.00218285 -0.644393 1.51106
lfemur -6.59209 4.13208 -21.1306
ltibia 68.5221 0 0
lfoot 5.93775 -0.592697 0
ltoes -11.688 0 0
rfemur -16.2575 -3.35514 21.5143
rtibia 71.1613 0 0
rfoot 6.59068 -6.49166 0
rtoes 17.0253 0 0
lowerback 17.7662 -1.22624 -1.72792
upperback 2.35153 -1.97833 -0.641448
thorax -7.38211 -0.928507 0.762333
lowerneck -6.65646 0.969091 -1.01506
upperneck -8.58441 1.36001 0.18087
head -1.50273 0.7007 0.252341
lclavicle -1.46519e-14 2.99243e-14 0
lhumerus -35.3445 -17.4906 89.9911
lradius 106.232 0 0
lwrist 28.5179 0 0
lhand -36.9056 8.25227 0
lfingers 7.12502 0 0
lthumb -9.98357 37.994 0
rclavicle -1.46519e-14 2.99243e-14 0
rhumerus -43.2085 9.16544 -85.0844
rradius 85.6397 0 0
rwrist -1.10718 0 0
rhand -44.5623 38.3665 0
rfingers 7.12502 0 0
rthumb -17.3624 9.12195 0
105
root 0.674125 17.4764 19.814 -0.00720044 -0.924278 1.42248
lfemur -6.19638 4.51459 -20.8102
ltibia 69.9224 0 0
lfoot 6.96005 -0.590854 0
ltoes -11.4782 0 0
rfemur -16.4154 -2.94269 21.8101
rtibia 69.4664 0 0
rfoot 5.75513 -6.48807 0
rtoes 16.6109 0 0
lowerback 17.7567 -1.24638 -1.55118
upperback 2.31887 -1.96368 -0.540164
thorax -7.41489 -0.924626 0.7677
lowerneck -6.65299 1.06622 -0.96118
upperneck -8.56767 1.47486 -0.03706
head -1.49667 0.758874 0.175664
lclavicle -1.55294e-14 2.93425e-14 0
lhumerus -35.8624 -17.5971 90.2129
lradius 106.2 0 0
lwrist 28.4814 0 0
lhand -36.9447 8.28628 0
lfingers 7.12502 0 0
lthumb -10.0213 38.0262 0
rclavicle -1.55294e-14 2.93425e-14 0
rhumerus -42.9754 9.30632 -85.0847
rradius 85.9449 0 0
rwrist -1.21682 0 0
rhand -44.5592 38.3779 0
rfingers 7.12502 0 0
rthumb -17.3594 9.13312 0
106
root 0.678841 17.4777 20.355 -0.0165837 -1.20416 1.3339
lfemur -5.80068 4.89709 -20.4898
ltibia 71.3228 0 0
lfoot 7.98236 -0.58901 0
ltoes -11.2684 0 0
rfemur -16.5733 -2.53023 22.1059
rtibia 67.7715 0 0
rfoot 4.91958 -6.48448 0
rtoes 16.1964 0 0
lowerback 17.7472 -1.26652 -1.37444
upperback 2.28621 -1.94903 -0.43888
thorax -7.44768 -0.920745 0.773067
lowerneck -6.64952 1.16335 -0.907298
upperneck -8.55092 1.5897 -0.25499
head -1.49061 0.817048 0.0989873
lclavicle -1.6407e-14 2.87607e-14 0
lhumerus -36.3802 -17.7036 90.4347
lradius 106.168 0 0
lwrist 28.4448 0 0
lhand -36.9838 8.32029 0
lfingers 7.12502 0 0
lthumb -10.0589 38.0584 0
rclavicle -1.6407e-14 2.87607e-14 0
rhumerus -42.7423 9.4472 -85.085
rradius 86.25 0 0
rwrist -1.32646 0 0
rhand -44.5561 38.3893 0
rfingers 7.12502 0 0
rthumb -17.3564 9.14429 0
